<mxfile host="app.diagrams.net" modified="2024-07-20T09:43:42.945Z" agent="Mozilla/5.0 (Windows NT 10.0; Win64; x64) AppleWebKit/537.36 (KHTML, like Gecko) Chrome/116.0.0.0 Safari/537.36" etag="giv8lnH2_1ePSrUQV1sN" version="24.7.2" type="github" pages="2">
  <diagram name="标准尺寸图" id="8MFRhUTCMbz-YKNLZu8n">
    <mxGraphModel dx="1015" dy="557" grid="0" gridSize="10" guides="0" tooltips="1" connect="1" arrows="1" fold="1" page="1" pageScale="1" pageWidth="827" pageHeight="1169" math="0" shadow="0">
      <root>
        <mxCell id="0" />
        <mxCell id="1" parent="0" />
        <mxCell id="MdOQNvsRJCko0Wnf9odB-4" value="" style="edgeStyle=none;rounded=0;orthogonalLoop=1;jettySize=auto;html=1;" edge="1" parent="1" source="7ypFmyVutZnrwf_CFHeM-20">
          <mxGeometry relative="1" as="geometry">
            <mxPoint x="394" y="49" as="targetPoint" />
          </mxGeometry>
        </mxCell>
        <mxCell id="MdOQNvsRJCko0Wnf9odB-8" value="" style="edgeStyle=none;rounded=0;orthogonalLoop=1;jettySize=auto;html=1;" edge="1" parent="1">
          <mxGeometry relative="1" as="geometry">
            <mxPoint x="396.00113602246824" y="1003.10049" as="sourcePoint" />
            <mxPoint x="396" y="1040" as="targetPoint" />
          </mxGeometry>
        </mxCell>
        <mxCell id="7ypFmyVutZnrwf_CFHeM-20" value="" style="rounded=0;whiteSpace=wrap;html=1;fillColor=#99FF99;" vertex="1" parent="1">
          <mxGeometry x="234" y="68" width="324.01509999999996" height="936.10049" as="geometry" />
        </mxCell>
        <mxCell id="7ypFmyVutZnrwf_CFHeM-21" value="" style="rounded=0;whiteSpace=wrap;html=1;fillColor=#FFFF33;" vertex="1" parent="1">
          <mxGeometry x="558" y="68" width="53.936899999999994" height="936.10049" as="geometry" />
        </mxCell>
        <mxCell id="7ypFmyVutZnrwf_CFHeM-26" style="edgeStyle=none;rounded=0;orthogonalLoop=1;jettySize=auto;html=1;exitX=0;exitY=0.5;exitDx=0;exitDy=0;entryX=0;entryY=0;entryDx=0;entryDy=0;" edge="1" parent="1" source="7ypFmyVutZnrwf_CFHeM-22" target="7ypFmyVutZnrwf_CFHeM-24">
          <mxGeometry relative="1" as="geometry" />
        </mxCell>
        <mxCell id="7ypFmyVutZnrwf_CFHeM-22" value="" style="rounded=0;whiteSpace=wrap;html=1;fillColor=#FFFF33;" vertex="1" parent="1">
          <mxGeometry x="180" y="68" width="53.936899999999994" height="936.10049" as="geometry" />
        </mxCell>
        <mxCell id="7ypFmyVutZnrwf_CFHeM-23" value="" style="rounded=0;whiteSpace=wrap;html=1;fillColor=#FFCC99;" vertex="1" parent="1">
          <mxGeometry x="234" y="283" width="324.01509999999996" height="253.5428" as="geometry" />
        </mxCell>
        <mxCell id="7ypFmyVutZnrwf_CFHeM-24" value="" style="rounded=0;whiteSpace=wrap;html=1;fillColor=#FFCC99;" vertex="1" parent="1">
          <mxGeometry x="234" y="536" width="324.01509999999996" height="253.5428" as="geometry" />
        </mxCell>
        <mxCell id="7ypFmyVutZnrwf_CFHeM-25" value="" style="endArrow=none;html=1;rounded=0;exitX=0;exitY=0.5;exitDx=0;exitDy=0;entryX=1;entryY=0.5;entryDx=0;entryDy=0;" edge="1" parent="1" source="7ypFmyVutZnrwf_CFHeM-22" target="7ypFmyVutZnrwf_CFHeM-21">
          <mxGeometry width="50" height="50" relative="1" as="geometry">
            <mxPoint x="350" y="550" as="sourcePoint" />
            <mxPoint x="400" y="500" as="targetPoint" />
          </mxGeometry>
        </mxCell>
        <mxCell id="7ypFmyVutZnrwf_CFHeM-27" value="" style="endArrow=none;html=1;rounded=0;entryX=0.5;entryY=0;entryDx=0;entryDy=0;exitX=0.5;exitY=1;exitDx=0;exitDy=0;" edge="1" parent="1" source="7ypFmyVutZnrwf_CFHeM-24" target="7ypFmyVutZnrwf_CFHeM-23">
          <mxGeometry width="50" height="50" relative="1" as="geometry">
            <mxPoint x="300" y="480" as="sourcePoint" />
            <mxPoint x="350" y="430" as="targetPoint" />
          </mxGeometry>
        </mxCell>
      </root>
    </mxGraphModel>
  </diagram>
  <diagram name="对拉热身" id="6w0VdB7yII2WI8DjBE3Q">
    <mxGraphModel dx="1740" dy="954" grid="0" gridSize="10" guides="0" tooltips="1" connect="1" arrows="1" fold="1" page="1" pageScale="1" pageWidth="827" pageHeight="1169" math="0" shadow="0">
      <root>
        <mxCell id="C1LpMd6C8XBM1DLYH4mm-0" />
        <mxCell id="C1LpMd6C8XBM1DLYH4mm-1" parent="C1LpMd6C8XBM1DLYH4mm-0" />
        <mxCell id="C1LpMd6C8XBM1DLYH4mm-2" value="" style="rounded=0;whiteSpace=wrap;html=1;fillColor=#99FF99;" vertex="1" parent="C1LpMd6C8XBM1DLYH4mm-1">
          <mxGeometry x="234" y="68" width="324.01509999999996" height="936.10049" as="geometry" />
        </mxCell>
        <mxCell id="C1LpMd6C8XBM1DLYH4mm-3" value="" style="rounded=0;whiteSpace=wrap;html=1;fillColor=#FFFF33;" vertex="1" parent="C1LpMd6C8XBM1DLYH4mm-1">
          <mxGeometry x="558" y="68" width="53.936899999999994" height="936.10049" as="geometry" />
        </mxCell>
        <mxCell id="C1LpMd6C8XBM1DLYH4mm-4" style="edgeStyle=none;rounded=0;orthogonalLoop=1;jettySize=auto;html=1;exitX=0;exitY=0.5;exitDx=0;exitDy=0;entryX=0;entryY=0;entryDx=0;entryDy=0;" edge="1" parent="C1LpMd6C8XBM1DLYH4mm-1" source="C1LpMd6C8XBM1DLYH4mm-5" target="C1LpMd6C8XBM1DLYH4mm-7">
          <mxGeometry relative="1" as="geometry" />
        </mxCell>
        <mxCell id="C1LpMd6C8XBM1DLYH4mm-5" value="" style="rounded=0;whiteSpace=wrap;html=1;fillColor=#FFFF33;" vertex="1" parent="C1LpMd6C8XBM1DLYH4mm-1">
          <mxGeometry x="180" y="68" width="53.936899999999994" height="936.10049" as="geometry" />
        </mxCell>
        <mxCell id="C1LpMd6C8XBM1DLYH4mm-6" value="" style="rounded=0;whiteSpace=wrap;html=1;fillColor=#FFCC99;" vertex="1" parent="C1LpMd6C8XBM1DLYH4mm-1">
          <mxGeometry x="234" y="283" width="324.01509999999996" height="253.5428" as="geometry" />
        </mxCell>
        <mxCell id="C1LpMd6C8XBM1DLYH4mm-7" value="" style="rounded=0;whiteSpace=wrap;html=1;fillColor=#FFCC99;" vertex="1" parent="C1LpMd6C8XBM1DLYH4mm-1">
          <mxGeometry x="234" y="536" width="324.01509999999996" height="253.5428" as="geometry" />
        </mxCell>
        <mxCell id="C1LpMd6C8XBM1DLYH4mm-8" value="" style="endArrow=none;html=1;rounded=0;exitX=0;exitY=0.5;exitDx=0;exitDy=0;entryX=1;entryY=0.5;entryDx=0;entryDy=0;" edge="1" parent="C1LpMd6C8XBM1DLYH4mm-1" source="C1LpMd6C8XBM1DLYH4mm-5" target="C1LpMd6C8XBM1DLYH4mm-3">
          <mxGeometry width="50" height="50" relative="1" as="geometry">
            <mxPoint x="350" y="550" as="sourcePoint" />
            <mxPoint x="400" y="500" as="targetPoint" />
          </mxGeometry>
        </mxCell>
        <mxCell id="C1LpMd6C8XBM1DLYH4mm-9" value="" style="endArrow=none;html=1;rounded=0;entryX=0.5;entryY=0;entryDx=0;entryDy=0;exitX=0.5;exitY=1;exitDx=0;exitDy=0;" edge="1" parent="C1LpMd6C8XBM1DLYH4mm-1" source="C1LpMd6C8XBM1DLYH4mm-7" target="C1LpMd6C8XBM1DLYH4mm-6">
          <mxGeometry width="50" height="50" relative="1" as="geometry">
            <mxPoint x="300" y="480" as="sourcePoint" />
            <mxPoint x="350" y="430" as="targetPoint" />
          </mxGeometry>
        </mxCell>
        <mxCell id="sP2DewzKza4zJG2hTm24-0" value="" style="rounded=0;whiteSpace=wrap;html=1;direction=west;rotation=80;" vertex="1" parent="C1LpMd6C8XBM1DLYH4mm-1">
          <mxGeometry x="-90.21" y="506.82" width="947.88" height="60" as="geometry" />
        </mxCell>
      </root>
    </mxGraphModel>
  </diagram>
</mxfile>
